<?xml version="1.0" encoding="utf-8" standalone="no"?>
<!DOCTYPE svg PUBLIC "-//W3C//DTD SVG 1.1//EN"
  "http://www.w3.org/Graphics/SVG/1.1/DTD/svg11.dtd">
<svg xmlns:xlink="http://www.w3.org/1999/xlink" width="463.566752pt" height="217.348659pt" viewBox="0 0 463.566752 217.348659" xmlns="http://www.w3.org/2000/svg" version="1.1">
 <metadata>
  <rdf:RDF xmlns:dc="http://purl.org/dc/elements/1.1/" xmlns:cc="http://creativecommons.org/ns#" xmlns:rdf="http://www.w3.org/1999/02/22-rdf-syntax-ns#">
   <cc:Work>
    <dc:type rdf:resource="http://purl.org/dc/dcmitype/StillImage"/>
    <dc:date>2026-05-22T13:52:59.306765</dc:date>
    <dc:format>image/svg+xml</dc:format>
    <dc:creator>
     <cc:Agent>
      <dc:title>Matplotlib v3.10.6, https://matplotlib.org/</dc:title>
     </cc:Agent>
    </dc:creator>
   </cc:Work>
  </rdf:RDF>
 </metadata>
 <defs>
  <style type="text/css">*{stroke-linejoin: round; stroke-linecap: butt}</style>
 </defs>
 <g id="figure_1">
  <g id="patch_1">
   <path d="M 0 217.348659 
L 463.566752 217.348659 
L 463.566752 -0 
L 0 -0 
z
" style="fill: #ffffff"/>
  </g>
  <g id="axes_1">
   <g id="patch_2">
    <path d="M 32.107969 187.619597 
L 222.07322 187.619597 
L 222.07322 21.299597 
L 32.107969 21.299597 
z
" style="fill: #ffffff"/>
   </g>
   <g id="matplotlib.axis_1">
    <g id="xtick_1">
     <g id="line2d_1">
      <defs>
       <path id="ma28504230c" d="M 0 0 
L 0 2.3 
" style="stroke: #000000; stroke-width: 0.6"/>
      </defs>
      <g>
       <use xlink:href="#ma28504230c" x="47.872391" y="187.619597" style="stroke: #000000; stroke-width: 0.6"/>
      </g>
     </g>
     <g id="text_1">
      <text style="font-size: 7px; font-family: 'Times New Roman', 'Times', 'DejaVu Serif', serif; text-anchor: middle" x="47.872391" y="198.280222" transform="rotate(-0 47.872391 198.280222)">1%</text>
     </g>
    </g>
    <g id="xtick_2">
     <g id="line2d_2">
      <g>
       <use xlink:href="#ma28504230c" x="87.481493" y="187.619597" style="stroke: #000000; stroke-width: 0.6"/>
      </g>
     </g>
     <g id="text_2">
      <text style="font-size: 7px; font-family: 'Times New Roman', 'Times', 'DejaVu Serif', serif; text-anchor: middle" x="87.481493" y="198.280222" transform="rotate(-0 87.481493 198.280222)">5%</text>
     </g>
    </g>
    <g id="xtick_3">
     <g id="line2d_3">
      <g>
       <use xlink:href="#ma28504230c" x="127.090595" y="187.619597" style="stroke: #000000; stroke-width: 0.6"/>
      </g>
     </g>
     <g id="text_3">
      <text style="font-size: 7px; font-family: 'Times New Roman', 'Times', 'DejaVu Serif', serif; text-anchor: middle" x="127.090595" y="198.280222" transform="rotate(-0 127.090595 198.280222)">10%</text>
     </g>
    </g>
    <g id="xtick_4">
     <g id="line2d_4">
      <g>
       <use xlink:href="#ma28504230c" x="166.699696" y="187.619597" style="stroke: #000000; stroke-width: 0.6"/>
      </g>
     </g>
     <g id="text_4">
      <text style="font-size: 7px; font-family: 'Times New Roman', 'Times', 'DejaVu Serif', serif; text-anchor: middle" x="166.699696" y="198.280222" transform="rotate(-0 166.699696 198.280222)">20%</text>
     </g>
    </g>
    <g id="xtick_5">
     <g id="line2d_5">
      <g>
       <use xlink:href="#ma28504230c" x="206.308798" y="187.619597" style="stroke: #000000; stroke-width: 0.6"/>
      </g>
     </g>
     <g id="text_5">
      <text style="font-size: 7px; font-family: 'Times New Roman', 'Times', 'DejaVu Serif', serif; text-anchor: middle" x="206.308798" y="198.280222" transform="rotate(-0 206.308798 198.280222)">50%</text>
     </g>
    </g>
    <g id="text_6">
     <text style="font-size: 7px; font-family: 'Times New Roman', 'Times', 'DejaVu Serif', serif; text-anchor: middle" x="127.090595" y="208.638191" transform="rotate(-0 127.090595 208.638191)">Top-ranked fraction</text>
    </g>
   </g>
   <g id="matplotlib.axis_2">
    <g id="ytick_1">
     <g id="line2d_6">
      <defs>
       <path id="md20905275a" d="M 0 0 
L -2.3 0 
" style="stroke: #000000; stroke-width: 0.6"/>
      </defs>
      <g>
       <use xlink:href="#md20905275a" x="32.107969" y="187.619597" style="stroke: #000000; stroke-width: 0.6"/>
      </g>
     </g>
     <g id="text_7">
      <text style="font-size: 7px; font-family: 'Times New Roman', 'Times', 'DejaVu Serif', serif; text-anchor: end" x="26.307969" y="190.049909" transform="rotate(-0 26.307969 190.049909)">0.0</text>
     </g>
    </g>
    <g id="ytick_2">
     <g id="line2d_7">
      <g>
       <use xlink:href="#md20905275a" x="32.107969" y="151.463075" style="stroke: #000000; stroke-width: 0.6"/>
      </g>
     </g>
     <g id="text_8">
      <text style="font-size: 7px; font-family: 'Times New Roman', 'Times', 'DejaVu Serif', serif; text-anchor: end" x="26.307969" y="153.893388" transform="rotate(-0 26.307969 153.893388)">0.1</text>
     </g>
    </g>
    <g id="ytick_3">
     <g id="line2d_8">
      <g>
       <use xlink:href="#md20905275a" x="32.107969" y="115.306553" style="stroke: #000000; stroke-width: 0.6"/>
      </g>
     </g>
     <g id="text_9">
      <text style="font-size: 7px; font-family: 'Times New Roman', 'Times', 'DejaVu Serif', serif; text-anchor: end" x="26.307969" y="117.736866" transform="rotate(-0 26.307969 117.736866)">0.2</text>
     </g>
    </g>
    <g id="ytick_4">
     <g id="line2d_9">
      <g>
       <use xlink:href="#md20905275a" x="32.107969" y="79.150032" style="stroke: #000000; stroke-width: 0.6"/>
      </g>
     </g>
     <g id="text_10">
      <text style="font-size: 7px; font-family: 'Times New Roman', 'Times', 'DejaVu Serif', serif; text-anchor: end" x="26.307969" y="81.580344" transform="rotate(-0 26.307969 81.580344)">0.3</text>
     </g>
    </g>
    <g id="ytick_5">
     <g id="line2d_10">
      <g>
       <use xlink:href="#md20905275a" x="32.107969" y="42.99351" style="stroke: #000000; stroke-width: 0.6"/>
      </g>
     </g>
     <g id="text_11">
      <text style="font-size: 7px; font-family: 'Times New Roman', 'Times', 'DejaVu Serif', serif; text-anchor: end" x="26.307969" y="45.423822" transform="rotate(-0 26.307969 45.423822)">0.4</text>
     </g>
    </g>
    <g id="text_12">
     <text style="font-size: 7px; font-family: 'Times New Roman', 'Times', 'DejaVu Serif', serif; text-anchor: middle" x="12.060625" y="104.459597" transform="rotate(-90 12.060625 104.459597)">Discordance fraction</text>
    </g>
   </g>
   <g id="LineCollection_1">
    <path d="M 40.742753 187.619597 
L 40.742753 187.619597 
" clip-path="url(#pcfc2d9e462)" style="fill: none; stroke: #e56b2e; stroke-width: 0.7"/>
    <path d="M 80.351855 187.619597 
L 80.351855 67.097858 
" clip-path="url(#pcfc2d9e462)" style="fill: none; stroke: #e56b2e; stroke-width: 0.7"/>
    <path d="M 119.960956 175.151831 
L 119.960956 62.941936 
" clip-path="url(#pcfc2d9e462)" style="fill: none; stroke: #e56b2e; stroke-width: 0.7"/>
    <path d="M 159.570058 175.151831 
L 159.570058 119.046883 
" clip-path="url(#pcfc2d9e462)" style="fill: none; stroke: #e56b2e; stroke-width: 0.7"/>
    <path d="M 199.17916 162.510901 
L 199.17916 124.847858 
" clip-path="url(#pcfc2d9e462)" style="fill: none; stroke: #e56b2e; stroke-width: 0.7"/>
   </g>
   <g id="line2d_11">
    <defs>
     <path id="mcccc2b7482" d="M 2 0 
L -2 -0 
" style="stroke: #e56b2e"/>
    </defs>
    <g clip-path="url(#pcfc2d9e462)">
     <use xlink:href="#mcccc2b7482" x="40.742753" y="187.619597" style="fill: #e56b2e; stroke: #e56b2e"/>
     <use xlink:href="#mcccc2b7482" x="80.351855" y="187.619597" style="fill: #e56b2e; stroke: #e56b2e"/>
     <use xlink:href="#mcccc2b7482" x="119.960956" y="175.151831" style="fill: #e56b2e; stroke: #e56b2e"/>
     <use xlink:href="#mcccc2b7482" x="159.570058" y="175.151831" style="fill: #e56b2e; stroke: #e56b2e"/>
     <use xlink:href="#mcccc2b7482" x="199.17916" y="162.510901" style="fill: #e56b2e; stroke: #e56b2e"/>
    </g>
   </g>
   <g id="line2d_12">
    <g clip-path="url(#pcfc2d9e462)">
     <use xlink:href="#mcccc2b7482" x="40.742753" y="187.619597" style="fill: #e56b2e; stroke: #e56b2e"/>
     <use xlink:href="#mcccc2b7482" x="80.351855" y="67.097858" style="fill: #e56b2e; stroke: #e56b2e"/>
     <use xlink:href="#mcccc2b7482" x="119.960956" y="62.941936" style="fill: #e56b2e; stroke: #e56b2e"/>
     <use xlink:href="#mcccc2b7482" x="159.570058" y="119.046883" style="fill: #e56b2e; stroke: #e56b2e"/>
     <use xlink:href="#mcccc2b7482" x="199.17916" y="124.847858" style="fill: #e56b2e; stroke: #e56b2e"/>
    </g>
   </g>
   <g id="LineCollection_2">
    <path d="M 47.872391 187.619597 
L 47.872391 -1 
" clip-path="url(#pcfc2d9e462)" style="fill: none; stroke: #4c78a8; stroke-width: 0.7"/>
    <path d="M 87.481493 187.619597 
L 87.481493 115.306553 
" clip-path="url(#pcfc2d9e462)" style="fill: none; stroke: #4c78a8; stroke-width: 0.7"/>
    <path d="M 127.090595 187.619597 
L 127.090595 112.813 
" clip-path="url(#pcfc2d9e462)" style="fill: none; stroke: #4c78a8; stroke-width: 0.7"/>
    <path d="M 166.699696 175.151831 
L 166.699696 112.813 
" clip-path="url(#pcfc2d9e462)" style="fill: none; stroke: #4c78a8; stroke-width: 0.7"/>
    <path d="M 206.308798 165.021771 
L 206.308798 127.358727 
" clip-path="url(#pcfc2d9e462)" style="fill: none; stroke: #4c78a8; stroke-width: 0.7"/>
   </g>
   <g id="line2d_13">
    <defs>
     <path id="m718990b47f" d="M 2 0 
L -2 -0 
" style="stroke: #4c78a8"/>
    </defs>
    <g clip-path="url(#pcfc2d9e462)">
     <use xlink:href="#m718990b47f" x="47.872391" y="187.619597" style="fill: #4c78a8; stroke: #4c78a8"/>
     <use xlink:href="#m718990b47f" x="87.481493" y="187.619597" style="fill: #4c78a8; stroke: #4c78a8"/>
     <use xlink:href="#m718990b47f" x="127.090595" y="187.619597" style="fill: #4c78a8; stroke: #4c78a8"/>
     <use xlink:href="#m718990b47f" x="166.699696" y="175.151831" style="fill: #4c78a8; stroke: #4c78a8"/>
     <use xlink:href="#m718990b47f" x="206.308798" y="165.021771" style="fill: #4c78a8; stroke: #4c78a8"/>
    </g>
   </g>
   <g id="line2d_14">
    <g clip-path="url(#pcfc2d9e462)">
     <use xlink:href="#m718990b47f" x="71.554912" y="-1" style="fill: #4c78a8; stroke: #4c78a8"/>
     <use xlink:href="#m718990b47f" x="87.481493" y="115.306553" style="fill: #4c78a8; stroke: #4c78a8"/>
     <use xlink:href="#m718990b47f" x="127.090595" y="112.813" style="fill: #4c78a8; stroke: #4c78a8"/>
     <use xlink:href="#m718990b47f" x="166.699696" y="112.813" style="fill: #4c78a8; stroke: #4c78a8"/>
     <use xlink:href="#m718990b47f" x="206.308798" y="127.358727" style="fill: #4c78a8; stroke: #4c78a8"/>
    </g>
   </g>
   <g id="LineCollection_3">
    <path d="M 55.00203 187.619597 
L 55.00203 -1 
" clip-path="url(#pcfc2d9e462)" style="fill: none; stroke: #4f9f69; stroke-width: 0.7"/>
    <path d="M 94.611131 187.619597 
L 94.611131 115.306553 
" clip-path="url(#pcfc2d9e462)" style="fill: none; stroke: #4f9f69; stroke-width: 0.7"/>
    <path d="M 134.220233 187.619597 
L 134.220233 100.345234 
" clip-path="url(#pcfc2d9e462)" style="fill: none; stroke: #4f9f69; stroke-width: 0.7"/>
    <path d="M 173.829335 175.151831 
L 173.829335 112.813 
" clip-path="url(#pcfc2d9e462)" style="fill: none; stroke: #4f9f69; stroke-width: 0.7"/>
    <path d="M 213.438436 167.53264 
L 213.438436 132.380466 
" clip-path="url(#pcfc2d9e462)" style="fill: none; stroke: #4f9f69; stroke-width: 0.7"/>
   </g>
   <g id="line2d_15">
    <defs>
     <path id="mc88526afe0" d="M 2 0 
L -2 -0 
" style="stroke: #4f9f69"/>
    </defs>
    <g clip-path="url(#pcfc2d9e462)">
     <use xlink:href="#mc88526afe0" x="55.00203" y="187.619597" style="fill: #4f9f69; stroke: #4f9f69"/>
     <use xlink:href="#mc88526afe0" x="94.611131" y="187.619597" style="fill: #4f9f69; stroke: #4f9f69"/>
     <use xlink:href="#mc88526afe0" x="134.220233" y="187.619597" style="fill: #4f9f69; stroke: #4f9f69"/>
     <use xlink:href="#mc88526afe0" x="173.829335" y="175.151831" style="fill: #4f9f69; stroke: #4f9f69"/>
     <use xlink:href="#mc88526afe0" x="213.438436" y="167.53264" style="fill: #4f9f69; stroke: #4f9f69"/>
    </g>
   </g>
   <g id="line2d_16">
    <g clip-path="url(#pcfc2d9e462)">
     <use xlink:href="#mc88526afe0" x="78.68455" y="-1" style="fill: #4f9f69; stroke: #4f9f69"/>
     <use xlink:href="#mc88526afe0" x="94.611131" y="115.306553" style="fill: #4f9f69; stroke: #4f9f69"/>
     <use xlink:href="#mc88526afe0" x="134.220233" y="100.345234" style="fill: #4f9f69; stroke: #4f9f69"/>
     <use xlink:href="#mc88526afe0" x="173.829335" y="112.813" style="fill: #4f9f69; stroke: #4f9f69"/>
     <use xlink:href="#mc88526afe0" x="213.438436" y="132.380466" style="fill: #4f9f69; stroke: #4f9f69"/>
    </g>
   </g>
   <g id="line2d_17">
    <path d="M 32.107969 148.565514 
L 222.07322 148.565514 
" clip-path="url(#pcfc2d9e462)" style="fill: none; stroke-dasharray: 2.96,1.28; stroke-dashoffset: 0; stroke: #606975; stroke-width: 0.8"/>
   </g>
   <g id="line2d_18">
    <path d="M 32.107969 109.511431 
L 222.07322 109.511431 
" clip-path="url(#pcfc2d9e462)" style="fill: none; stroke-dasharray: 0.8,1.32; stroke-dashoffset: 0; stroke: #b8bec7; stroke-width: 0.8"/>
   </g>
   <g id="line2d_19">
    <defs>
     <path id="me1248164d2" d="M 0 2.25 
C 0.596707 2.25 1.169055 2.012926 1.59099 1.59099 
C 2.012926 1.169055 2.25 0.596707 2.25 0 
C 2.25 -0.596707 2.012926 -1.169055 1.59099 -1.59099 
C 1.169055 -2.012926 0.596707 -2.25 0 -2.25 
C -0.596707 -2.25 -1.169055 -2.012926 -1.59099 -1.59099 
C -2.012926 -1.169055 -2.25 -0.596707 -2.25 0 
C -2.25 0.596707 -2.012926 1.169055 -1.59099 1.59099 
C -1.169055 2.012926 -0.596707 2.25 0 2.25 
z
" style="stroke: #e56b2e"/>
    </defs>
    <g clip-path="url(#pcfc2d9e462)">
     <use xlink:href="#me1248164d2" x="40.742753" y="187.619597" style="fill: #e56b2e; stroke: #e56b2e"/>
     <use xlink:href="#me1248164d2" x="80.351855" y="139.410901" style="fill: #e56b2e; stroke: #e56b2e"/>
     <use xlink:href="#me1248164d2" x="119.960956" y="125.280766" style="fill: #e56b2e; stroke: #e56b2e"/>
     <use xlink:href="#me1248164d2" x="159.570058" y="150.216299" style="fill: #e56b2e; stroke: #e56b2e"/>
     <use xlink:href="#me1248164d2" x="199.17916" y="144.934814" style="fill: #e56b2e; stroke: #e56b2e"/>
    </g>
   </g>
   <g id="line2d_20">
    <defs>
     <path id="m6a93e220a4" d="M -2.25 2.25 
L 2.25 2.25 
L 2.25 -2.25 
L -2.25 -2.25 
z
" style="stroke: #4c78a8; stroke-linejoin: miter"/>
    </defs>
    <g clip-path="url(#pcfc2d9e462)">
     <use xlink:href="#m6a93e220a4" x="47.872391" y="67.097858" style="fill: #4c78a8; stroke: #4c78a8; stroke-linejoin: miter"/>
     <use xlink:href="#m6a93e220a4" x="87.481493" y="163.515249" style="fill: #4c78a8; stroke: #4c78a8; stroke-linejoin: miter"/>
     <use xlink:href="#m6a93e220a4" x="127.090595" y="150.216299" style="fill: #4c78a8; stroke: #4c78a8; stroke-linejoin: miter"/>
     <use xlink:href="#m6a93e220a4" x="166.699696" y="143.982415" style="fill: #4c78a8; stroke: #4c78a8; stroke-linejoin: miter"/>
     <use xlink:href="#m6a93e220a4" x="206.308798" y="147.445684" style="fill: #4c78a8; stroke: #4c78a8; stroke-linejoin: miter"/>
    </g>
   </g>
   <g id="line2d_21">
    <defs>
     <path id="m2867789ba3" d="M 0 -2.25 
L -2.25 2.25 
L 2.25 2.25 
z
" style="stroke: #4f9f69; stroke-linejoin: miter"/>
    </defs>
    <g clip-path="url(#pcfc2d9e462)">
     <use xlink:href="#m2867789ba3" x="55.00203" y="67.097858" style="fill: #4f9f69; stroke: #4f9f69; stroke-linejoin: miter"/>
     <use xlink:href="#m2867789ba3" x="94.611131" y="163.515249" style="fill: #4f9f69; stroke: #4f9f69; stroke-linejoin: miter"/>
     <use xlink:href="#m2867789ba3" x="134.220233" y="150.216299" style="fill: #4f9f69; stroke: #4f9f69; stroke-linejoin: miter"/>
     <use xlink:href="#m2867789ba3" x="173.829335" y="143.982415" style="fill: #4f9f69; stroke: #4f9f69; stroke-linejoin: miter"/>
     <use xlink:href="#m2867789ba3" x="213.438436" y="152.467423" style="fill: #4f9f69; stroke: #4f9f69; stroke-linejoin: miter"/>
    </g>
   </g>
   <g id="patch_3">
    <path d="M 32.107969 187.619597 
L 32.107969 21.299597 
" style="fill: none; stroke: #000000; stroke-width: 0.7; stroke-linejoin: miter; stroke-linecap: square"/>
   </g>
   <g id="patch_4">
    <path d="M 32.107969 187.619597 
L 222.07322 187.619597 
" style="fill: none; stroke: #000000; stroke-width: 0.7; stroke-linejoin: miter; stroke-linecap: square"/>
   </g>
   <g id="text_13">
    <text style="font-weight: 700; font-size: 8.5px; font-family: 'Times New Roman', 'Times', 'DejaVu Serif', serif; text-anchor: start" x="13.111444" y="12.828594" transform="rotate(-0 13.111444 12.828594)">a</text>
   </g>
   <g id="text_14">
    <text style="font-size: 5.8px; font-family: 'Times New Roman', 'Times', 'DejaVu Serif', serif; text-anchor: end; fill: #606975" x="224.132894" y="144.432336" transform="rotate(-0 224.132894 144.432336)">baseline</text>
   </g>
   <g id="text_15">
    <text style="font-size: 5.8px; font-family: 'Times New Roman', 'Times', 'DejaVu Serif', serif; text-anchor: end; fill: #b8bec7" x="224.132894" y="105.378253" transform="rotate(-0 224.132894 105.378253)">2x</text>
   </g>
   <g id="text_16">
    <text style="font-size: 5.8px; font-family: 'Times New Roman', 'Times', 'DejaVu Serif', serif; text-anchor: start; fill: #68717d" x="35.907274" y="33.642972" transform="rotate(-0 35.907274 33.642972)">dots are discrete top-k diagnostics</text>
   </g>
   <g id="legend_1">
    <g id="LineCollection_4">
     <path d="M 175.005049 31.624597 
L 175.005049 25.724597 
" style="fill: none; stroke: #e56b2e; stroke-width: 0.7"/>
    </g>
    <g id="line2d_22">
     <g>
      <use xlink:href="#mcccc2b7482" x="175.005049" y="31.624597" style="fill: #e56b2e; stroke: #e56b2e"/>
     </g>
    </g>
    <g id="line2d_23">
     <g>
      <use xlink:href="#mcccc2b7482" x="175.005049" y="25.724597" style="fill: #e56b2e; stroke: #e56b2e"/>
     </g>
    </g>
    <g id="line2d_24"/>
    <g id="line2d_25">
     <g>
      <use xlink:href="#me1248164d2" x="175.005049" y="28.674597" style="fill: #e56b2e; stroke: #e56b2e"/>
     </g>
    </g>
    <g id="text_17">
     <text style="font-size: 5.9px; font-family: 'Times New Roman', 'Times', 'DejaVu Serif', serif; text-anchor: start" x="185.625049" y="30.739597" transform="rotate(-0 185.625049 30.739597)">ALIGNN-FF</text>
    </g>
    <g id="LineCollection_5">
     <path d="M 175.005049 39.966644 
L 175.005049 34.066644 
" style="fill: none; stroke: #4c78a8; stroke-width: 0.7"/>
    </g>
    <g id="line2d_26">
     <g>
      <use xlink:href="#m718990b47f" x="175.005049" y="39.966644" style="fill: #4c78a8; stroke: #4c78a8"/>
     </g>
    </g>
    <g id="line2d_27">
     <g>
      <use xlink:href="#m718990b47f" x="175.005049" y="34.066644" style="fill: #4c78a8; stroke: #4c78a8"/>
     </g>
    </g>
    <g id="line2d_28"/>
    <g id="line2d_29">
     <g>
      <use xlink:href="#m6a93e220a4" x="175.005049" y="37.016644" style="fill: #4c78a8; stroke: #4c78a8; stroke-linejoin: miter"/>
     </g>
    </g>
    <g id="text_18">
     <text style="font-size: 5.9px; font-family: 'Times New Roman', 'Times', 'DejaVu Serif', serif; text-anchor: start" x="185.625049" y="39.081644" transform="rotate(-0 185.625049 39.081644)">CHGNet</text>
    </g>
    <g id="LineCollection_6">
     <path d="M 175.005049 48.308691 
L 175.005049 42.408691 
" style="fill: none; stroke: #4f9f69; stroke-width: 0.7"/>
    </g>
    <g id="line2d_30">
     <g>
      <use xlink:href="#mc88526afe0" x="175.005049" y="48.308691" style="fill: #4f9f69; stroke: #4f9f69"/>
     </g>
    </g>
    <g id="line2d_31">
     <g>
      <use xlink:href="#mc88526afe0" x="175.005049" y="42.408691" style="fill: #4f9f69; stroke: #4f9f69"/>
     </g>
    </g>
    <g id="line2d_32"/>
    <g id="line2d_33">
     <g>
      <use xlink:href="#m2867789ba3" x="175.005049" y="45.358691" style="fill: #4f9f69; stroke: #4f9f69; stroke-linejoin: miter"/>
     </g>
    </g>
    <g id="text_19">
     <text style="font-size: 5.9px; font-family: 'Times New Roman', 'Times', 'DejaVu Serif', serif; text-anchor: start" x="185.625049" y="47.423691" transform="rotate(-0 185.625049 47.423691)">MACE-MP</text>
    </g>
   </g>
  </g>
  <g id="axes_2">
   <g id="patch_5">
    <path d="M 292.284377 187.619597 
L 436.657969 187.619597 
L 436.657969 21.299597 
L 292.284377 21.299597 
z
" style="fill: #ffffff"/>
   </g>
   <g id="patch_6">
    <path d="M 299.819863 187.619597 
L 343.810816 187.619597 
L 343.810816 21.299597 
L 299.819863 21.299597 
z
" clip-path="url(#p9a2d76aa0c)" style="fill: #f2f4f7; stroke: #f2f4f7; stroke-linejoin: miter"/>
   </g>
   <g id="matplotlib.axis_3">
    <g id="xtick_6">
     <g id="line2d_34">
      <g>
       <use xlink:href="#ma28504230c" x="321.815339" y="187.619597" style="stroke: #000000; stroke-width: 0.6"/>
      </g>
     </g>
     <g id="text_20">
      <text style="font-size: 7px; font-family: 'Times New Roman', 'Times', 'DejaVu Serif', serif; text-anchor: middle" x="321.815339" y="198.280222" transform="rotate(-0 321.815339 198.280222)">0.0</text>
     </g>
    </g>
    <g id="xtick_7">
     <g id="line2d_35">
      <g>
       <use xlink:href="#ma28504230c" x="354.627519" y="187.619597" style="stroke: #000000; stroke-width: 0.6"/>
      </g>
     </g>
     <g id="text_21">
      <text style="font-size: 7px; font-family: 'Times New Roman', 'Times', 'DejaVu Serif', serif; text-anchor: middle" x="354.627519" y="198.280222" transform="rotate(-0 354.627519 198.280222)">0.5</text>
     </g>
    </g>
    <g id="xtick_8">
     <g id="line2d_36">
      <g>
       <use xlink:href="#ma28504230c" x="387.439699" y="187.619597" style="stroke: #000000; stroke-width: 0.6"/>
      </g>
     </g>
     <g id="text_22">
      <text style="font-size: 7px; font-family: 'Times New Roman', 'Times', 'DejaVu Serif', serif; text-anchor: middle" x="387.439699" y="198.280222" transform="rotate(-0 387.439699 198.280222)">1.0</text>
     </g>
    </g>
    <g id="xtick_9">
     <g id="line2d_37">
      <g>
       <use xlink:href="#ma28504230c" x="420.251879" y="187.619597" style="stroke: #000000; stroke-width: 0.6"/>
      </g>
     </g>
     <g id="text_23">
      <text style="font-size: 7px; font-family: 'Times New Roman', 'Times', 'DejaVu Serif', serif; text-anchor: middle" x="420.251879" y="198.280222" transform="rotate(-0 420.251879 198.280222)">1.5</text>
     </g>
    </g>
    <g id="text_24">
     <text style="font-size: 7px; font-family: 'Times New Roman', 'Times', 'DejaVu Serif', serif; text-anchor: middle" x="364.471173" y="208.638191" transform="rotate(-0 364.471173 208.638191)">Standardized logistic coefficient</text>
    </g>
   </g>
   <g id="matplotlib.axis_4">
    <g id="ytick_6">
     <g id="line2d_38">
      <g>
       <use xlink:href="#md20905275a" x="292.284377" y="28.859597" style="stroke: #000000; stroke-width: 0.6"/>
      </g>
     </g>
     <g id="text_25">
      <text style="font-size: 7px; font-family: 'Times New Roman', 'Times', 'DejaVu Serif', serif; text-anchor: end" x="286.484377" y="31.289909" transform="rotate(-0 286.484377 31.289909)">ALIGNN-FF</text>
     </g>
    </g>
    <g id="ytick_7">
     <g id="line2d_39">
      <g>
       <use xlink:href="#md20905275a" x="292.284377" y="79.259597" style="stroke: #000000; stroke-width: 0.6"/>
      </g>
     </g>
     <g id="text_26">
      <text style="font-size: 7px; font-family: 'Times New Roman', 'Times', 'DejaVu Serif', serif; text-anchor: end" x="286.484377" y="81.689909" transform="rotate(-0 286.484377 81.689909)">CHGNet</text>
     </g>
    </g>
    <g id="ytick_8">
     <g id="line2d_40">
      <g>
       <use xlink:href="#md20905275a" x="292.284377" y="129.659597" style="stroke: #000000; stroke-width: 0.6"/>
      </g>
     </g>
     <g id="text_27">
      <text style="font-size: 7px; font-family: 'Times New Roman', 'Times', 'DejaVu Serif', serif; text-anchor: end" x="286.484377" y="132.089909" transform="rotate(-0 286.484377 132.089909)">MACE-MP</text>
     </g>
    </g>
    <g id="ytick_9">
     <g id="line2d_41">
      <g>
       <use xlink:href="#md20905275a" x="292.284377" y="180.059597" style="stroke: #000000; stroke-width: 0.6"/>
      </g>
     </g>
     <g id="text_28">
      <!-- $|\Delta e|$ -->
      <g transform="translate(272.624377 182.754597)">
       <text>
        <tspan x="0" y="-0.65625" style="font-size: 7px; font-family: 'DejaVu Sans'">|</tspan>
        <tspan x="2.358398" y="-0.65625" style="font-size: 7px; font-family: 'DejaVu Sans'">Δ</tspan>
        <tspan x="11.453613" y="-0.65625" style="font-size: 7px; font-family: 'DejaVu Sans'">|</tspan>
        <tspan x="7.146973" y="-0.65625" style="font-style: oblique; font-size: 7px; font-family: 'DejaVu Sans'">e</tspan>
       </text>
      </g>
     </g>
    </g>
   </g>
   <g id="line2d_42">
    <path d="M 321.815339 187.619597 
L 321.815339 21.299597 
" clip-path="url(#p9a2d76aa0c)" style="fill: none; stroke: #606975; stroke-width: 0.7; stroke-linecap: square"/>
   </g>
   <g id="patch_7">
    <path d="M 292.284377 187.619597 
L 292.284377 21.299597 
" style="fill: none; stroke: #000000; stroke-width: 0.7; stroke-linejoin: miter; stroke-linecap: square"/>
   </g>
   <g id="patch_8">
    <path d="M 292.284377 187.619597 
L 436.657969 187.619597 
" style="fill: none; stroke: #000000; stroke-width: 0.7; stroke-linejoin: miter; stroke-linecap: square"/>
   </g>
   <g id="text_29">
    <text style="font-weight: 700; font-size: 8.5px; font-family: 'Times New Roman', 'Times', 'DejaVu Serif', serif; text-anchor: start" x="272.072075" y="12.828594" transform="rotate(-0 272.072075 12.828594)">b</text>
   </g>
   <g id="PathCollection_1">
    <path d="M 327.180956 31.775073 
C 327.954149 31.775073 328.695778 31.46788 329.242508 30.92115 
C 329.789239 30.374419 330.096432 29.63279 330.096432 28.859597 
C 330.096432 28.086404 329.789239 27.344774 329.242508 26.798044 
C 328.695778 26.251314 327.954149 25.944121 327.180956 25.944121 
C 326.407762 25.944121 325.666133 26.251314 325.119403 26.798044 
C 324.572673 27.344774 324.26548 28.086404 324.26548 28.859597 
C 324.26548 29.63279 324.572673 30.374419 325.119403 30.92115 
C 325.666133 31.46788 326.407762 31.775073 327.180956 31.775073 
z
" clip-path="url(#p9a2d76aa0c)" style="fill: #e56b2e; stroke: #e56b2e"/>
    <path d="M 331.708192 82.175073 
C 332.481385 82.175073 333.223015 81.86788 333.769745 81.32115 
C 334.316475 80.774419 334.623668 80.03279 334.623668 79.259597 
C 334.623668 78.486404 334.316475 77.744774 333.769745 77.198044 
C 333.223015 76.651314 332.481385 76.344121 331.708192 76.344121 
C 330.934999 76.344121 330.193369 76.651314 329.646639 77.198044 
C 329.099909 77.744774 328.792716 78.486404 328.792716 79.259597 
C 328.792716 80.03279 329.099909 80.774419 329.646639 81.32115 
C 330.193369 81.86788 330.934999 82.175073 331.708192 82.175073 
z
" clip-path="url(#p9a2d76aa0c)" style="fill: #4c78a8; stroke: #4c78a8"/>
    <path d="M 332.551155 132.575073 
C 333.324348 132.575073 334.065977 132.26788 334.612708 131.72115 
C 335.159438 131.174419 335.466631 130.43279 335.466631 129.659597 
C 335.466631 128.886404 335.159438 128.144774 334.612708 127.598044 
C 334.065977 127.051314 333.324348 126.744121 332.551155 126.744121 
C 331.777962 126.744121 331.036332 127.051314 330.489602 127.598044 
C 329.942872 128.144774 329.635679 128.886404 329.635679 129.659597 
C 329.635679 130.43279 329.942872 131.174419 330.489602 131.72115 
C 331.036332 132.26788 331.777962 132.575073 332.551155 132.575073 
z
" clip-path="url(#p9a2d76aa0c)" style="fill: #4f9f69; stroke: #4f9f69"/>
    <path d="M 419.772659 183.523698 
C 420.691349 183.523698 421.572536 183.158699 422.222149 182.509087 
C 422.871761 181.859474 423.236761 180.978287 423.236761 180.059597 
C 423.236761 179.140906 422.871761 178.259719 422.222149 177.610107 
C 421.572536 176.960495 420.691349 176.595495 419.772659 176.595495 
C 418.853968 176.595495 417.972781 176.960495 417.323169 177.610107 
C 416.673557 178.259719 416.308557 179.140906 416.308557 180.059597 
C 416.308557 180.978287 416.673557 181.859474 417.323169 182.509087 
C 417.972781 183.158699 418.853968 183.523698 419.772659 183.523698 
z
" clip-path="url(#p9a2d76aa0c)" style="fill: #252a32; stroke: #252a32"/>
   </g>
   <g id="text_30">
    <text style="font-size: 5.9px; font-family: 'Times New Roman', 'Times', 'DejaVu Serif', serif; text-anchor: end; fill: #68717d" x="430.751776" y="30.27698" transform="rotate(-0 430.751776 30.27698)">p=0.633</text>
   </g>
   <g id="text_31">
    <text style="font-size: 5.9px; font-family: 'Times New Roman', 'Times', 'DejaVu Serif', serif; text-anchor: end; fill: #68717d" x="430.751776" y="80.67698" transform="rotate(-0 430.751776 80.67698)">p=0.367</text>
   </g>
   <g id="text_32">
    <text style="font-size: 5.9px; font-family: 'Times New Roman', 'Times', 'DejaVu Serif', serif; text-anchor: end; fill: #68717d" x="430.751776" y="131.07698" transform="rotate(-0 430.751776 131.07698)">p=0.327</text>
   </g>
   <g id="text_33">
    <text style="font-size: 5.9px; font-family: 'Times New Roman', 'Times', 'DejaVu Serif', serif; text-anchor: start; fill: #252a32" x="423.053877" y="181.465917" transform="rotate(-0 423.053877 181.465917)">source-energy</text>
   </g>
   <g id="text_34">
    <text style="font-size: 5.6px; font-family: 'Times New Roman', 'Times', 'DejaVu Serif', serif; text-anchor: start; fill: #68717d" x="295.171849" y="31.840897" transform="rotate(-0 295.171849 31.840897)">gray band: 95% rank-permutation null</text>
   </g>
  </g>
 </g>
 <defs>
  <clipPath id="pcfc2d9e462">
   <rect x="32.107969" y="21.299597" width="189.965252" height="166.32"/>
  </clipPath>
  <clipPath id="p9a2d76aa0c">
   <rect x="292.284377" y="21.299597" width="144.373591" height="166.32"/>
  </clipPath>
 </defs>
</svg>
